<?xml version="1.0" encoding="utf-8"?>
<!-- Generator: Adobe Illustrator 15.0.0, SVG Export Plug-In . SVG Version: 6.00 Build 0)  -->
<!DOCTYPE svg PUBLIC "-//W3C//DTD SVG 1.1//EN" "http://www.w3.org/Graphics/SVG/1.1/DTD/svg11.dtd">
<svg version="1.1" id="Capa_1" xmlns="http://www.w3.org/2000/svg" xmlns:xlink="http://www.w3.org/1999/xlink" x="0px" y="0px"
	 width="595.28px" height="841.89px" viewBox="0 0 595.28 841.89" enable-background="new 0 0 595.28 841.89" xml:space="preserve">
<g>
	<path fill="none" d="M309.736,384.279c0.029,12.152,9.885,22.015,22.059,22.015c6.064,0,11.553-2.455,15.543-6.415l-15.611-15.6
		H309.736z"/>
	<path fill="#80A2C7" d="M254.107,354.057v30.162h46.939l0.068,22.134h-47.008v30.591h47.059v24.545h10.994l-0.018-44.775h22.139
		l-0.006,44.307h26.889V354.057H254.107z M331.795,406.294c-12.174,0-22.029-9.862-22.059-22.015h21.99l15.611,15.6
		C343.348,403.839,337.859,406.294,331.795,406.294z"/>
	<path fill="none" d="M309.736,384.279c0.029,12.152,9.885,22.015,22.059,22.015c6.064,0,11.553-2.455,15.543-6.415l-15.611-15.6
		H309.736z"/>
	<path fill="none" d="M309.736,384.279c0.029,12.152,9.885,22.015,22.059,22.015c6.064,0,11.553-2.455,15.543-6.415l-15.611-15.6
		H309.736z"/>
	<polygon fill-rule="evenodd" clip-rule="evenodd" fill="#1B4095" points="253.742,384.209 253.742,362.065 301.115,362.065 
		301.115,406.353 278.971,384.209 253.742,384.209 	"/>
	<polygon fill-rule="evenodd" clip-rule="evenodd" fill="#1B4095" points="253.631,439.404 253.631,417.25 301.145,417.25 
		301.145,461.539 278.932,439.404 253.631,439.404 	"/>
	<polygon fill-rule="evenodd" clip-rule="evenodd" fill="#1B4095" points="334.275,461.02 356.418,461.02 356.418,416.713 
		312.143,416.713 334.275,438.857 334.275,461.02 	"/>
	<path fill="#FFFFFF" d="M353.854,384.254c0-0.008,0.006-0.018,0.006-0.025c0-12.188-9.877-22.073-22.064-22.073
		c0,0-0.027,0.003-0.035,0.003C343.963,362.178,353.846,372.059,353.854,384.254z"/>
	<path fill="#1B4095" d="M331.76,362.158c-0.01,0-0.023-0.003-0.023-0.003c-12.219,0-22.123,9.905-22.123,22.124h0.123h21.99
		l15.611,15.6l0.041,0.043c4.008-4.011,6.48-9.539,6.48-15.643c0-0.008-0.006-0.018-0.006-0.025
		C353.846,372.059,343.963,362.178,331.76,362.158z"/>
	<g>
		<path fill="#1B4095" d="M244.785,356.922h-5.032v0.353c0,0.542,0.081,0.985,0.244,1.328s0.437,0.634,0.822,0.872
			c0.385,0.238,0.906,0.393,1.563,0.465v0.316h-6.153v-0.316c1.163-0.114,1.929-0.426,2.3-0.935c0.37-0.509,0.555-1.085,0.555-1.73
			v-0.353h-3.749c-0.626,0-1.018,0.035-1.175,0.104s-0.293,0.205-0.411,0.407c-0.117,0.202-0.176,0.474-0.176,0.817v0.407h-0.334
			v-6.406h0.334v0.407c0,0.355,0.063,0.641,0.189,0.858c0.084,0.156,0.229,0.277,0.434,0.361c0.145,0.066,0.524,0.099,1.139,0.099
			h8.059c0.626,0,1.018-0.033,1.175-0.099c0.156-0.066,0.293-0.201,0.411-0.402c0.117-0.202,0.176-0.474,0.176-0.817v-0.407h0.334
			v10.336h-3.515v-0.371c0.825-0.084,1.437-0.3,1.834-0.646c0.397-0.346,0.677-0.848,0.84-1.504c0.09-0.361,0.136-1.03,0.136-2.005
			V356.922z"/>
		<path fill="#1B4095" d="M236.726,369.463v-4.328l-1.192-0.515c-0.397-0.169-0.726-0.253-0.985-0.253
			c-0.343,0-0.596,0.138-0.759,0.416c-0.097,0.163-0.169,0.563-0.217,1.202h-0.334v-4.075h0.334
			c0.066,0.439,0.248,0.801,0.546,1.084s0.914,0.633,1.848,1.048l9.775,4.382v0.171l-10.046,4.418
			c-0.952,0.422-1.551,0.768-1.798,1.039c-0.187,0.205-0.295,0.494-0.325,0.867h-0.334v-5.927h0.334v0.244
			c0,0.476,0.066,0.81,0.199,1.003c0.096,0.132,0.235,0.199,0.416,0.199c0.108,0,0.22-0.018,0.334-0.054
			c0.054-0.012,0.28-0.103,0.678-0.271L236.726,369.463z M237.394,369.155l4.219-1.825l-4.219-1.879V369.155z"/>
		<path fill="#1B4095" d="M245.77,387.478h-4.247v-0.353c1.108-0.265,1.958-0.759,2.548-1.481c0.59-0.723,0.885-1.542,0.885-2.458
			c0-0.765-0.22-1.467-0.659-2.105c-0.44-0.638-1.015-1.105-1.726-1.4c-0.91-0.38-1.921-0.569-3.036-0.569
			c-1.097,0-2.095,0.138-2.995,0.416c-0.9,0.277-1.581,0.71-2.042,1.301c-0.46,0.59-0.691,1.355-0.691,2.295
			c0,0.771,0.168,1.477,0.506,2.119s0.918,1.317,1.744,2.028H235c-0.717-0.687-1.236-1.402-1.559-2.146
			c-0.322-0.744-0.483-1.613-0.483-2.607c0-1.307,0.262-2.468,0.786-3.482c0.524-1.015,1.277-1.798,2.259-2.349
			c0.981-0.551,2.027-0.827,3.135-0.827c1.168,0,2.277,0.306,3.325,0.917c1.048,0.611,1.861,1.437,2.439,2.476
			c0.579,1.039,0.868,2.143,0.868,3.311c0,0.861-0.187,1.771-0.56,2.729c-0.217,0.554-0.326,0.906-0.326,1.057
			c0,0.192,0.071,0.36,0.212,0.501c0.142,0.141,0.366,0.233,0.673,0.275V387.478z"/>
		<path fill="#1B4095" d="M245.489,388.923v6.324h-0.334v-0.316c0-0.476-0.049-0.803-0.149-0.98
			c-0.099-0.178-0.236-0.304-0.411-0.379s-0.611-0.113-1.31-0.113h-5.999c-1.096,0-1.822,0.083-2.177,0.248
			c-0.355,0.166-0.65,0.438-0.885,0.818s-0.353,0.858-0.353,1.437c0,0.663,0.149,1.227,0.447,1.694
			c0.298,0.467,0.709,0.816,1.233,1.048c0.524,0.231,1.437,0.348,2.737,0.348h4.996c0.548,0,0.94-0.057,1.175-0.172
			c0.235-0.114,0.397-0.259,0.488-0.434c0.139-0.271,0.208-0.653,0.208-1.147h0.334v4.237h-0.334v-0.253
			c0-0.343-0.069-0.629-0.208-0.858c-0.139-0.229-0.347-0.395-0.624-0.497c-0.193-0.079-0.539-0.118-1.039-0.118h-4.653
			c-1.439,0-2.479-0.095-3.117-0.285c-0.639-0.189-1.226-0.652-1.762-1.387c-0.536-0.735-0.804-1.738-0.804-3.008
			c0-1.06,0.142-1.879,0.425-2.458c0.385-0.789,0.879-1.346,1.481-1.671c0.602-0.325,1.413-0.488,2.43-0.488h5.999
			c0.705,0,1.143-0.04,1.315-0.118c0.171-0.078,0.309-0.214,0.411-0.406c0.103-0.193,0.151-0.548,0.145-1.066H245.489z"/>
		<path fill="#1B4095" d="M237.539,413.534l-4.3-0.46v-10.878h0.334v0.407c0,0.355,0.063,0.641,0.189,0.858
			c0.084,0.156,0.229,0.277,0.434,0.361c0.145,0.066,0.524,0.099,1.139,0.099h8.059c0.626,0,1.018-0.033,1.175-0.099
			c0.156-0.066,0.293-0.201,0.411-0.402c0.117-0.202,0.176-0.474,0.176-0.817v-0.407h0.334v6.532h-0.334v-0.533
			c0-0.355-0.063-0.642-0.189-0.858c-0.084-0.157-0.229-0.28-0.434-0.37c-0.145-0.066-0.524-0.1-1.139-0.1h-7.806
			c-0.626,0-1.025,0.036-1.197,0.108c-0.171,0.072-0.3,0.214-0.384,0.425c-0.054,0.15-0.082,0.515-0.082,1.093v1.021
			c0,0.65,0.114,1.192,0.343,1.626s0.59,0.809,1.084,1.125c0.494,0.316,1.223,0.616,2.186,0.899V413.534z"/>
		<path fill="#1B4095" d="M245.489,424.168h-3.316v-0.326c0.765-0.192,1.315-0.406,1.649-0.641c0.334-0.235,0.601-0.558,0.8-0.967
			c0.108-0.229,0.163-0.63,0.163-1.202v-0.912h-9.45c-0.626,0-1.018,0.034-1.175,0.104s-0.293,0.205-0.411,0.407
			c-0.117,0.202-0.176,0.477-0.176,0.827v0.407h-0.334v-6.415h0.334v0.407c0,0.355,0.063,0.642,0.189,0.858
			c0.084,0.157,0.229,0.28,0.434,0.371c0.145,0.066,0.524,0.099,1.139,0.099h9.45v-0.885c0-0.825-0.175-1.425-0.524-1.798
			c-0.488-0.524-1.184-0.855-2.087-0.994v-0.343h3.316V424.168z"/>
		<path fill="#1B4095" d="M236.726,431.16v-4.327l-1.192-0.515c-0.397-0.17-0.726-0.254-0.985-0.254
			c-0.343,0-0.596,0.139-0.759,0.416c-0.097,0.162-0.169,0.563-0.217,1.201h-0.334v-4.074h0.334
			c0.066,0.439,0.248,0.801,0.546,1.084s0.914,0.633,1.848,1.049l9.775,4.381v0.172l-10.046,4.418
			c-0.952,0.422-1.551,0.768-1.798,1.039c-0.187,0.205-0.295,0.494-0.325,0.867h-0.334v-5.927h0.334v0.244
			c0,0.476,0.066,0.81,0.199,1.003c0.096,0.133,0.235,0.199,0.416,0.199c0.108,0,0.22-0.019,0.334-0.055
			c0.054-0.012,0.28-0.103,0.678-0.271L236.726,431.16z M237.394,430.854l4.219-1.825l-4.219-1.88V430.854z"/>
		<path fill="#1B4095" d="M233.238,437.069h0.334v0.406c0,0.355,0.056,0.628,0.167,0.817s0.263,0.33,0.456,0.42
			c0.126,0.055,0.506,0.082,1.139,0.082h8.059c0.626,0,1.018-0.033,1.175-0.1c0.156-0.066,0.293-0.2,0.411-0.402
			c0.117-0.201,0.176-0.475,0.176-0.817v-0.406h0.334v5.483c0,1.464-0.199,2.642-0.596,3.533c-0.488,1.09-1.226,1.916-2.213,2.48
			c-0.988,0.563-2.105,0.844-3.352,0.844c-0.861,0-1.655-0.139-2.381-0.415c-0.726-0.277-1.325-0.636-1.798-1.075
			c-0.473-0.439-0.852-0.947-1.138-1.522s-0.507-1.278-0.664-2.11c-0.072-0.367-0.108-0.945-0.108-1.734V437.069z M244.793,441.74
			h-9.559c-0.506,0-0.816,0.023-0.931,0.072c-0.114,0.048-0.202,0.129-0.262,0.244c-0.09,0.162-0.136,0.396-0.136,0.704
			c0,1.006,0.343,1.774,1.03,2.304c0.927,0.723,2.367,1.084,4.318,1.084c1.572,0,2.828-0.246,3.768-0.74
			c0.735-0.392,1.234-0.895,1.5-1.509C244.709,443.466,244.8,442.746,244.793,441.74z"/>
		<path fill="#1B4095" d="M233.238,455.797h0.334v0.406c0,0.355,0.056,0.629,0.167,0.818s0.263,0.33,0.456,0.42
			c0.126,0.055,0.506,0.082,1.139,0.082h8.059c0.626,0,1.018-0.033,1.175-0.1c0.156-0.066,0.293-0.201,0.411-0.402
			c0.117-0.202,0.176-0.475,0.176-0.818v-0.406h0.334v5.484c0,1.463-0.199,2.641-0.596,3.533c-0.488,1.09-1.226,1.916-2.213,2.479
			c-0.988,0.563-2.105,0.845-3.352,0.845c-0.861,0-1.655-0.139-2.381-0.416c-0.726-0.277-1.325-0.635-1.798-1.074
			c-0.473-0.44-0.852-0.947-1.138-1.523c-0.286-0.574-0.507-1.277-0.664-2.109c-0.072-0.367-0.108-0.945-0.108-1.734V455.797z
			 M244.793,460.469h-9.559c-0.506,0-0.816,0.023-0.931,0.072c-0.114,0.047-0.202,0.129-0.262,0.243
			c-0.09,0.163-0.136,0.397-0.136,0.704c0,1.006,0.343,1.774,1.03,2.305c0.927,0.723,2.367,1.084,4.318,1.084
			c1.572,0,2.828-0.247,3.768-0.74c0.735-0.393,1.234-0.895,1.5-1.51C244.709,462.193,244.8,461.475,244.793,460.469z"/>
		<path fill="#1B4095" d="M244.785,474.327h-4.987v0.244c0,0.776,0.244,1.34,0.732,1.689c0.488,0.349,1.208,0.572,2.159,0.668v0.344
			h-6.415v-0.344c0.699-0.072,1.271-0.225,1.717-0.456c0.445-0.231,0.745-0.501,0.899-0.809c0.153-0.307,0.23-0.753,0.23-1.337
			h-3.451c-0.674,0-1.087,0.028-1.238,0.086c-0.15,0.057-0.274,0.164-0.37,0.32c-0.097,0.156-0.145,0.41-0.145,0.759v0.732
			c0,1.144,0.265,2.061,0.795,2.751c0.53,0.689,1.337,1.185,2.421,1.486v0.334l-3.894-0.551v-10.589h0.334v0.406
			c0,0.355,0.063,0.642,0.189,0.858c0.084,0.157,0.229,0.276,0.434,0.361c0.145,0.066,0.524,0.1,1.139,0.1h8.059
			c0.554,0,0.895-0.015,1.021-0.046c0.211-0.06,0.374-0.171,0.488-0.334c0.169-0.229,0.253-0.542,0.253-0.939v-0.406h0.334v10.254
			h-3.623v-0.343c0.886-0.175,1.521-0.42,1.907-0.736c0.385-0.316,0.668-0.764,0.849-1.342c0.108-0.338,0.163-0.97,0.163-1.897
			V474.327z"/>
	</g>
	<g>
		<path fill="#1B4095" d="M259.272,480.188v0.323h-6.191v-0.323h0.393c0.343,0,0.62-0.061,0.83-0.184
			c0.151-0.081,0.268-0.221,0.349-0.419c0.064-0.14,0.096-0.506,0.096-1.1v-7.789c0-0.604-0.032-0.983-0.096-1.135
			s-0.194-0.284-0.389-0.397s-0.458-0.17-0.79-0.17h-0.393v-0.323h6.191v0.323h-0.393c-0.344,0-0.62,0.061-0.83,0.184
			c-0.151,0.081-0.271,0.221-0.358,0.418c-0.064,0.141-0.096,0.507-0.096,1.101v7.789c0,0.605,0.034,0.983,0.101,1.135
			s0.198,0.284,0.393,0.397c0.195,0.113,0.458,0.17,0.79,0.17H259.272z"/>
		<path fill="#1B4095" d="M264.136,468.671l5.841,7.343v-5.09c0-0.711-0.102-1.19-0.306-1.441c-0.279-0.337-0.748-0.5-1.406-0.488
			v-0.323h3.912v0.323c-0.5,0.064-0.837,0.146-1.008,0.248c-0.172,0.103-0.306,0.269-0.402,0.498
			c-0.096,0.23-0.144,0.625-0.144,1.184v9.857h-0.297l-8.007-9.857v7.526c0,0.681,0.156,1.141,0.467,1.38
			c0.312,0.238,0.668,0.357,1.07,0.357h0.279v0.323h-4.2v-0.323c0.652-0.006,1.105-0.14,1.362-0.401s0.384-0.707,0.384-1.336v-8.356
			l-0.253-0.314c-0.25-0.314-0.471-0.521-0.664-0.619c-0.192-0.1-0.468-0.154-0.829-0.166v-0.323H264.136z"/>
		<path fill="#1B4095" d="M284.934,468.4v4.174h-0.323c-0.39-1.141-0.975-2.009-1.755-2.603c-0.78-0.594-1.633-0.891-2.559-0.891
			c-0.885,0-1.621,0.249-2.209,0.747c-0.588,0.497-1.004,1.191-1.249,2.082c-0.245,0.891-0.367,1.805-0.367,2.742
			c0,1.135,0.134,2.13,0.401,2.985c0.268,0.856,0.7,1.484,1.297,1.887c0.597,0.401,1.305,0.603,2.126,0.603
			c0.285,0,0.578-0.031,0.877-0.092c0.3-0.062,0.607-0.15,0.921-0.267v-2.462c0-0.466-0.032-0.768-0.096-0.904
			s-0.196-0.26-0.397-0.371c-0.201-0.11-0.444-0.166-0.729-0.166h-0.306v-0.322h5.754v0.322c-0.437,0.029-0.741,0.089-0.913,0.18
			c-0.172,0.09-0.304,0.24-0.397,0.449c-0.052,0.11-0.079,0.382-0.079,0.813v2.462c-0.756,0.338-1.544,0.593-2.362,0.764
			c-0.818,0.172-1.666,0.258-2.545,0.258c-1.124,0-2.057-0.152-2.799-0.458c-0.742-0.306-1.397-0.708-1.964-1.205
			c-0.567-0.498-1.012-1.058-1.332-1.681c-0.408-0.804-0.611-1.703-0.611-2.698c0-1.781,0.626-3.286,1.877-4.514
			c1.251-1.229,2.826-1.843,4.724-1.843c0.588,0,1.118,0.046,1.589,0.14c0.256,0.047,0.671,0.179,1.244,0.396
			c0.573,0.219,0.913,0.328,1.017,0.328c0.163,0,0.314-0.06,0.454-0.18c0.14-0.119,0.268-0.344,0.384-0.676H284.934z"/>
		<path fill="#1B4095" d="M291.378,469.352v4.82h0.236c0.751,0,1.295-0.236,1.633-0.707c0.337-0.473,0.553-1.168,0.646-2.088h0.332
			v6.2h-0.332c-0.07-0.676-0.217-1.229-0.441-1.659s-0.484-0.721-0.781-0.869s-0.728-0.223-1.292-0.223v3.336
			c0,0.651,0.028,1.051,0.083,1.196s0.159,0.265,0.31,0.357c0.151,0.094,0.396,0.14,0.733,0.14h0.707
			c1.106,0,1.992-0.256,2.659-0.768c0.667-0.513,1.145-1.293,1.436-2.341h0.323l-0.533,3.764h-10.233v-0.323h0.393
			c0.343,0,0.62-0.061,0.83-0.184c0.151-0.081,0.268-0.221,0.349-0.419c0.064-0.14,0.096-0.506,0.096-1.1v-7.789
			c0-0.535-0.015-0.864-0.044-0.986c-0.058-0.204-0.166-0.36-0.323-0.472c-0.222-0.162-0.524-0.244-0.908-0.244h-0.393v-0.323h9.91
			v3.501h-0.332c-0.169-0.855-0.406-1.47-0.711-1.842c-0.306-0.373-0.738-0.646-1.297-0.821c-0.326-0.104-0.938-0.157-1.833-0.157
			H291.378z"/>
		<path fill="#1B4095" d="M302.887,468.671l5.841,7.343v-5.09c0-0.711-0.103-1.19-0.306-1.441c-0.279-0.337-0.748-0.5-1.406-0.488
			v-0.323h3.912v0.323c-0.5,0.064-0.837,0.146-1.008,0.248c-0.172,0.103-0.307,0.269-0.402,0.498
			c-0.096,0.23-0.145,0.625-0.145,1.184v9.857h-0.297l-8.006-9.857v7.526c0,0.681,0.155,1.141,0.467,1.38
			c0.312,0.238,0.668,0.357,1.07,0.357h0.279v0.323h-4.2v-0.323c0.651-0.006,1.105-0.14,1.362-0.401
			c0.256-0.262,0.384-0.707,0.384-1.336v-8.356l-0.253-0.314c-0.25-0.314-0.472-0.521-0.664-0.619
			c-0.191-0.1-0.469-0.154-0.829-0.166v-0.323H302.887z"/>
		<path fill="#1B4095" d="M317.896,480.188v0.323h-6.191v-0.323h0.393c0.344,0,0.62-0.061,0.83-0.184
			c0.151-0.081,0.268-0.221,0.35-0.419c0.063-0.14,0.096-0.506,0.096-1.1v-7.789c0-0.604-0.032-0.983-0.096-1.135
			c-0.064-0.151-0.194-0.284-0.389-0.397c-0.195-0.113-0.459-0.17-0.791-0.17h-0.393v-0.323h6.191v0.323h-0.395
			c-0.342,0-0.619,0.061-0.828,0.184c-0.152,0.081-0.271,0.221-0.358,0.418c-0.063,0.141-0.097,0.507-0.097,1.101v7.789
			c0,0.605,0.034,0.983,0.102,1.135c0.066,0.151,0.197,0.284,0.393,0.397s0.459,0.17,0.789,0.17H317.896z"/>
		<path fill="#1B4095" d="M323.178,469.352v4.82h0.236c0.75,0,1.295-0.236,1.633-0.707c0.338-0.473,0.553-1.168,0.646-2.088h0.332
			v6.2h-0.332c-0.07-0.676-0.217-1.229-0.441-1.659s-0.484-0.721-0.781-0.869s-0.729-0.223-1.293-0.223v3.336
			c0,0.651,0.027,1.051,0.084,1.196c0.055,0.146,0.158,0.265,0.309,0.357c0.152,0.094,0.396,0.14,0.734,0.14h0.707
			c1.105,0,1.992-0.256,2.658-0.768c0.668-0.513,1.146-1.293,1.438-2.341h0.322l-0.531,3.764h-10.234v-0.323h0.393
			c0.344,0,0.621-0.061,0.83-0.184c0.15-0.081,0.268-0.221,0.35-0.419c0.064-0.14,0.096-0.506,0.096-1.1v-7.789
			c0-0.535-0.016-0.864-0.043-0.986c-0.059-0.204-0.166-0.36-0.324-0.472c-0.221-0.162-0.523-0.244-0.908-0.244h-0.393v-0.323h9.91
			v3.501h-0.332c-0.168-0.855-0.406-1.47-0.711-1.842c-0.307-0.373-0.738-0.646-1.297-0.821c-0.326-0.104-0.938-0.157-1.834-0.157
			H323.178z"/>
		<path fill="#1B4095" d="M334.982,475.114v3.318c0,0.641,0.039,1.043,0.119,1.209c0.078,0.166,0.217,0.299,0.414,0.397
			c0.197,0.1,0.568,0.148,1.109,0.148v0.323h-6.061v-0.323c0.547,0,0.918-0.051,1.113-0.152c0.195-0.103,0.332-0.234,0.41-0.397
			s0.119-0.564,0.119-1.205v-7.684c0-0.641-0.041-1.044-0.119-1.21s-0.217-0.298-0.414-0.396c-0.197-0.1-0.568-0.148-1.109-0.148
			v-0.323h5.502c1.432,0,2.479,0.099,3.143,0.297s1.205,0.563,1.623,1.096c0.42,0.532,0.629,1.157,0.629,1.873
			c0,0.873-0.314,1.595-0.941,2.165c-0.402,0.361-0.965,0.632-1.686,0.813l2.846,4.008c0.373,0.518,0.637,0.841,0.795,0.969
			c0.238,0.181,0.516,0.279,0.83,0.297v0.323h-3.729l-3.816-5.396H334.982z M334.982,469.309v5.187h0.498
			c0.809,0,1.414-0.074,1.816-0.223s0.717-0.417,0.947-0.804s0.346-0.893,0.346-1.516c0-0.901-0.213-1.568-0.635-1.999
			s-1.102-0.646-2.037-0.646H334.982z"/>
		<path fill="#1B4095" d="M349.695,480.188v0.323h-6.189v-0.323h0.393c0.344,0,0.619-0.061,0.828-0.184
			c0.152-0.081,0.268-0.221,0.35-0.419c0.064-0.14,0.096-0.506,0.096-1.1v-7.789c0-0.604-0.031-0.983-0.096-1.135
			s-0.193-0.284-0.389-0.397s-0.457-0.17-0.789-0.17h-0.393v-0.323h6.189v0.323h-0.393c-0.344,0-0.619,0.061-0.83,0.184
			c-0.15,0.081-0.27,0.221-0.357,0.418c-0.064,0.141-0.096,0.507-0.096,1.101v7.789c0,0.605,0.033,0.983,0.1,1.135
			s0.199,0.284,0.393,0.397c0.195,0.113,0.459,0.17,0.791,0.17H349.695z"/>
		<path fill="#1B4095" d="M357.545,477.141h-4.182l-0.498,1.152c-0.164,0.384-0.244,0.701-0.244,0.952
			c0,0.331,0.133,0.576,0.4,0.733c0.158,0.093,0.545,0.163,1.162,0.209v0.323h-3.938v-0.323c0.424-0.063,0.773-0.24,1.047-0.528
			s0.611-0.883,1.014-1.785l4.234-9.448h0.166l4.27,9.71c0.408,0.92,0.742,1.499,1.004,1.737c0.197,0.181,0.479,0.285,0.838,0.314
			v0.323h-5.727v-0.323h0.234c0.461,0,0.783-0.063,0.971-0.192c0.127-0.093,0.191-0.227,0.191-0.401
			c0-0.104-0.018-0.212-0.053-0.323c-0.012-0.052-0.1-0.271-0.262-0.654L357.545,477.141z M357.248,476.494l-1.764-4.078
			l-1.816,4.078H357.248z"/>
	</g>
	<polyline fill="none" stroke="#1B4095" stroke-width="0.8266" stroke-miterlimit="2.4142" points="334.281,461.009 361.164,461.02 
		361.164,354.057 254.107,354.057 254.107,384.279 	"/>
	
		<line fill="none" stroke="#1B4095" stroke-width="1.0332" stroke-miterlimit="2.4142" x1="254.107" y1="406.353" x2="254.107" y2="439.404"/>
	
		<line fill="none" stroke="#1B4095" stroke-width="1.0332" stroke-miterlimit="2.4142" x1="301.145" y1="461.009" x2="312.16" y2="461.009"/>
</g>
</svg>
