<?xml version="1.0" encoding="UTF-8" standalone="no"?>
<!-- Generator: Adobe Illustrator 15.0.0, SVG Export Plug-In . SVG Version: 6.00 Build 0)  -->

<svg
   xmlns:dc="http://purl.org/dc/elements/1.1/"
   xmlns:cc="http://creativecommons.org/ns#"
   xmlns:rdf="http://www.w3.org/1999/02/22-rdf-syntax-ns#"
   xmlns:svg="http://www.w3.org/2000/svg"
   xmlns="http://www.w3.org/2000/svg"
   xmlns:sodipodi="http://sodipodi.sourceforge.net/DTD/sodipodi-0.dtd"
   xmlns:inkscape="http://www.inkscape.org/namespaces/inkscape"
   version="1.1"
   id="Capa_1"
   x="0px"
   y="0px"
   width="135.10001"
   height="131.203"
   viewBox="0 0 135.1 131.203"
   enable-background="new 0 0 595.28 841.89"
   xml:space="preserve"
   sodipodi:docname="logo_FING_diapo.svg"
   inkscape:version="0.92.4 (5da689c313, 2019-01-14)"><metadata
   id="metadata83"><rdf:RDF><cc:Work
       rdf:about=""><dc:format>image/svg+xml</dc:format><dc:type
         rdf:resource="http://purl.org/dc/dcmitype/StillImage" /></cc:Work></rdf:RDF></metadata><defs
   id="defs81" /><sodipodi:namedview
   pagecolor="#ffffff"
   bordercolor="#666666"
   borderopacity="1"
   objecttolerance="10"
   gridtolerance="10"
   guidetolerance="10"
   inkscape:pageopacity="0"
   inkscape:pageshadow="2"
   inkscape:window-width="1920"
   inkscape:window-height="1017"
   id="namedview79"
   showgrid="false"
   inkscape:zoom="3.1714775"
   inkscape:cx="104.90046"
   inkscape:cy="65.214221"
   inkscape:window-x="-8"
   inkscape:window-y="-8"
   inkscape:window-maximized="1"
   inkscape:current-layer="Capa_1" />
<rect
   x="0"
   y="0"
   width="135.10001"
   height="131.203"
   id="rect2"
   style="fill:#004184" />
<g
   id="g76"
   transform="translate(-232.786,-353.21301)">
	<g
   id="g24">
		<path
   d="m 254.572,366.753 h -4.35 v 0.305 c 0,0.468 0.07,0.851 0.211,1.147 0.141,0.296 0.377,0.548 0.711,0.754 0.333,0.205 0.783,0.339 1.351,0.401 v 0.273 h -5.317 v -0.273 c 1.004,-0.099 1.667,-0.368 1.987,-0.808 0.32,-0.44 0.479,-0.938 0.479,-1.495 v -0.305 h -3.24 c -0.541,0 -0.88,0.029 -1.015,0.09 -0.136,0.06 -0.254,0.177 -0.355,0.352 -0.102,0.174 -0.152,0.409 -0.152,0.706 v 0.352 h -0.289 v -5.536 h 0.289 v 0.351 c 0,0.307 0.055,0.555 0.164,0.742 0.072,0.135 0.197,0.239 0.375,0.312 0.125,0.057 0.452,0.086 0.983,0.086 h 6.966 c 0.541,0 0.879,-0.029 1.015,-0.086 0.136,-0.057 0.254,-0.173 0.355,-0.347 0.102,-0.175 0.152,-0.41 0.152,-0.707 v -0.351 h 0.289 v 8.933 h -3.038 v -0.32 c 0.713,-0.072 1.242,-0.259 1.585,-0.558 0.344,-0.3 0.586,-0.733 0.727,-1.301 0.078,-0.312 0.117,-0.89 0.117,-1.733 z"
   id="path4"
   inkscape:connector-curvature="0"
   style="fill:#ffffff" />
		<path
   d="m 247.606,377.592 v -3.74 l -1.03,-0.445 c -0.344,-0.146 -0.627,-0.219 -0.852,-0.219 -0.296,0 -0.515,0.119 -0.655,0.359 -0.084,0.141 -0.146,0.486 -0.188,1.038 h -0.289 v -3.521 h 0.289 c 0.057,0.38 0.215,0.692 0.473,0.937 0.257,0.245 0.789,0.547 1.597,0.906 l 8.449,3.787 v 0.148 l -8.684,3.818 c -0.822,0.364 -1.341,0.664 -1.554,0.898 -0.162,0.177 -0.256,0.427 -0.281,0.749 h -0.289 v -5.122 h 0.289 v 0.211 c 0,0.411 0.057,0.7 0.172,0.866 0.083,0.114 0.203,0.172 0.359,0.172 0.094,0 0.189,-0.016 0.288,-0.047 0.047,-0.011 0.242,-0.088 0.586,-0.234 z m 0.579,-0.266 3.646,-1.577 -3.646,-1.625 z"
   id="path6"
   inkscape:connector-curvature="0"
   style="fill:#ffffff" />
		<path
   d="m 255.424,393.162 h -3.671 v -0.305 c 0.958,-0.229 1.692,-0.656 2.202,-1.281 0.511,-0.624 0.766,-1.332 0.766,-2.124 0,-0.661 -0.19,-1.268 -0.57,-1.819 -0.38,-0.551 -0.877,-0.955 -1.491,-1.21 -0.786,-0.328 -1.661,-0.492 -2.624,-0.492 -0.947,0 -1.811,0.12 -2.588,0.359 -0.778,0.239 -1.367,0.614 -1.766,1.125 -0.397,0.51 -0.597,1.171 -0.597,1.982 0,0.667 0.146,1.277 0.438,1.832 0.291,0.554 0.793,1.139 1.507,1.753 h -0.914 c -0.619,-0.594 -1.068,-1.212 -1.347,-1.854 -0.278,-0.644 -0.418,-1.395 -0.418,-2.253 0,-1.13 0.227,-2.134 0.68,-3.011 0.453,-0.877 1.104,-1.554 1.952,-2.03 0.849,-0.476 1.752,-0.714 2.709,-0.714 1.011,0 1.968,0.264 2.874,0.792 0.905,0.528 1.608,1.242 2.108,2.14 0.5,0.898 0.75,1.853 0.75,2.862 0,0.744 -0.162,1.53 -0.484,2.358 -0.188,0.479 -0.281,0.783 -0.281,0.913 0,0.167 0.061,0.312 0.184,0.434 0.122,0.122 0.316,0.201 0.582,0.238 v 0.305 z"
   id="path8"
   inkscape:connector-curvature="0"
   style="fill:#ffffff" />
		<path
   d="m 255.182,394.411 v 5.466 h -0.289 v -0.273 c 0,-0.411 -0.043,-0.693 -0.129,-0.847 -0.086,-0.154 -0.204,-0.264 -0.355,-0.328 -0.151,-0.065 -0.528,-0.098 -1.132,-0.098 h -5.186 c -0.947,0 -1.574,0.071 -1.882,0.215 -0.307,0.143 -0.563,0.379 -0.765,0.706 -0.203,0.328 -0.305,0.742 -0.305,1.242 0,0.572 0.129,1.061 0.387,1.464 0.257,0.403 0.612,0.705 1.065,0.906 0.453,0.2 1.241,0.3 2.366,0.3 h 4.318 c 0.474,0 0.812,-0.049 1.015,-0.148 0.203,-0.099 0.344,-0.224 0.422,-0.374 0.119,-0.234 0.18,-0.565 0.18,-0.992 h 0.289 v 3.662 h -0.289 v -0.219 c 0,-0.296 -0.061,-0.544 -0.18,-0.741 -0.12,-0.198 -0.3,-0.341 -0.539,-0.43 -0.167,-0.067 -0.466,-0.102 -0.897,-0.102 h -4.021 c -1.244,0 -2.143,-0.082 -2.694,-0.246 -0.551,-0.164 -1.06,-0.563 -1.522,-1.198 -0.464,-0.636 -0.695,-1.502 -0.695,-2.601 0,-0.916 0.122,-1.624 0.367,-2.124 0.333,-0.682 0.76,-1.163 1.28,-1.444 0.52,-0.281 1.221,-0.422 2.101,-0.422 h 5.186 c 0.608,0 0.987,-0.034 1.136,-0.102 0.149,-0.068 0.267,-0.185 0.355,-0.352 0.088,-0.166 0.13,-0.474 0.125,-0.921 h 0.288 z"
   id="path10"
   inkscape:connector-curvature="0"
   style="fill:#ffffff" />
		<path
   d="m 248.31,415.682 -3.717,-0.398 v -9.401 h 0.289 v 0.352 c 0,0.307 0.055,0.554 0.164,0.741 0.072,0.136 0.197,0.239 0.375,0.313 0.125,0.058 0.452,0.086 0.983,0.086 h 6.966 c 0.541,0 0.879,-0.028 1.015,-0.086 0.136,-0.058 0.254,-0.173 0.355,-0.348 0.102,-0.174 0.152,-0.409 0.152,-0.706 v -0.352 h 0.289 v 5.646 h -0.289 v -0.461 c 0,-0.307 -0.055,-0.554 -0.164,-0.741 -0.073,-0.136 -0.198,-0.242 -0.375,-0.32 -0.125,-0.058 -0.453,-0.086 -0.983,-0.086 h -6.747 c -0.542,0 -0.887,0.031 -1.035,0.094 -0.147,0.063 -0.259,0.185 -0.331,0.367 -0.047,0.13 -0.07,0.444 -0.07,0.944 v 0.883 c 0,0.562 0.099,1.03 0.297,1.405 0.197,0.375 0.51,0.699 0.937,0.972 0.427,0.273 1.057,0.532 1.89,0.777 v 0.319 z"
   id="path12"
   inkscape:connector-curvature="0"
   style="fill:#ffffff" />
		<path
   d="m 255.182,424.872 h -2.866 v -0.281 c 0.661,-0.167 1.137,-0.352 1.425,-0.555 0.289,-0.203 0.52,-0.481 0.691,-0.835 0.094,-0.198 0.141,-0.544 0.141,-1.039 v -0.788 h -8.168 c -0.541,0 -0.88,0.029 -1.015,0.09 -0.136,0.06 -0.254,0.177 -0.355,0.351 -0.102,0.175 -0.152,0.413 -0.152,0.715 v 0.352 h -0.289 v -5.544 h 0.289 v 0.352 c 0,0.307 0.055,0.554 0.164,0.741 0.072,0.136 0.197,0.242 0.375,0.32 0.125,0.058 0.452,0.086 0.983,0.086 h 8.168 v -0.766 c 0,-0.713 -0.151,-1.23 -0.453,-1.554 -0.422,-0.453 -1.022,-0.739 -1.804,-0.858 v -0.297 h 2.866 z"
   id="path14"
   inkscape:connector-curvature="0"
   style="fill:#ffffff" />
		<path
   d="m 247.606,430.917 v -3.74 l -1.03,-0.445 c -0.344,-0.146 -0.627,-0.219 -0.852,-0.219 -0.296,0 -0.515,0.119 -0.655,0.359 -0.084,0.141 -0.146,0.486 -0.188,1.038 h -0.289 v -3.521 h 0.289 c 0.057,0.38 0.215,0.692 0.473,0.937 0.257,0.245 0.789,0.547 1.597,0.906 l 8.449,3.787 v 0.148 l -8.684,3.818 c -0.822,0.364 -1.341,0.664 -1.554,0.898 -0.162,0.177 -0.256,0.427 -0.281,0.749 h -0.289 v -5.122 h 0.289 v 0.211 c 0,0.411 0.057,0.7 0.172,0.866 0.083,0.114 0.203,0.172 0.359,0.172 0.094,0 0.189,-0.016 0.288,-0.047 0.047,-0.011 0.242,-0.088 0.586,-0.234 z m 0.579,-0.266 3.646,-1.577 -3.646,-1.625 z"
   id="path16"
   inkscape:connector-curvature="0"
   style="fill:#ffffff" />
		<path
   d="m 244.593,436.023 h 0.289 v 0.352 c 0,0.307 0.048,0.542 0.145,0.706 0.096,0.164 0.228,0.285 0.395,0.363 0.109,0.047 0.437,0.07 0.983,0.07 h 6.966 c 0.541,0 0.879,-0.028 1.015,-0.086 0.136,-0.058 0.254,-0.173 0.355,-0.348 0.102,-0.174 0.152,-0.409 0.152,-0.706 v -0.352 h 0.289 v 4.739 c 0,1.266 -0.172,2.283 -0.516,3.054 -0.422,0.942 -1.06,1.656 -1.913,2.144 -0.854,0.486 -1.819,0.729 -2.897,0.729 -0.744,0 -1.43,-0.119 -2.058,-0.358 -0.627,-0.24 -1.145,-0.55 -1.554,-0.93 -0.408,-0.38 -0.736,-0.818 -0.983,-1.315 -0.248,-0.497 -0.438,-1.105 -0.574,-1.823 -0.063,-0.317 -0.094,-0.817 -0.094,-1.5 z m 9.987,4.038 h -8.262 c -0.438,0 -0.705,0.021 -0.804,0.063 -0.1,0.041 -0.175,0.111 -0.227,0.211 -0.078,0.141 -0.117,0.344 -0.117,0.608 0,0.87 0.297,1.533 0.89,1.991 0.802,0.625 2.046,0.938 3.732,0.938 1.359,0 2.444,-0.214 3.257,-0.641 0.635,-0.338 1.066,-0.772 1.296,-1.304 0.162,-0.375 0.24,-0.997 0.235,-1.866 z"
   id="path18"
   inkscape:connector-curvature="0"
   style="fill:#ffffff" />
		<path
   d="m 244.593,452.21 h 0.289 v 0.352 c 0,0.307 0.048,0.542 0.145,0.706 0.096,0.164 0.228,0.285 0.395,0.363 0.109,0.047 0.437,0.07 0.983,0.07 h 6.966 c 0.541,0 0.879,-0.028 1.015,-0.086 0.136,-0.058 0.254,-0.173 0.355,-0.348 0.102,-0.174 0.152,-0.409 0.152,-0.706 v -0.352 h 0.289 v 4.739 c 0,1.266 -0.172,2.283 -0.516,3.054 -0.422,0.942 -1.06,1.656 -1.913,2.144 -0.854,0.486 -1.819,0.729 -2.897,0.729 -0.744,0 -1.43,-0.119 -2.058,-0.358 -0.627,-0.24 -1.145,-0.55 -1.554,-0.93 -0.408,-0.38 -0.736,-0.818 -0.983,-1.315 -0.248,-0.497 -0.438,-1.105 -0.574,-1.823 -0.063,-0.317 -0.094,-0.817 -0.094,-1.5 z m 9.987,4.037 h -8.262 c -0.438,0 -0.705,0.021 -0.804,0.063 -0.1,0.041 -0.175,0.111 -0.227,0.211 -0.078,0.141 -0.117,0.344 -0.117,0.608 0,0.87 0.297,1.533 0.89,1.991 0.802,0.625 2.046,0.938 3.732,0.938 1.359,0 2.444,-0.214 3.257,-0.641 0.635,-0.338 1.066,-0.772 1.296,-1.304 0.162,-0.375 0.24,-0.997 0.235,-1.866 z"
   id="path20"
   inkscape:connector-curvature="0"
   style="fill:#ffffff" />
		<path
   d="m 254.572,468.225 h -4.311 v 0.211 c 0,0.671 0.211,1.158 0.633,1.46 0.422,0.302 1.044,0.494 1.866,0.578 v 0.296 h -5.544 v -0.296 c 0.604,-0.063 1.098,-0.194 1.483,-0.395 0.385,-0.2 0.645,-0.434 0.777,-0.699 0.132,-0.266 0.198,-0.65 0.198,-1.155 h -2.982 c -0.583,0 -0.939,0.024 -1.07,0.074 -0.13,0.049 -0.236,0.142 -0.319,0.277 -0.084,0.135 -0.125,0.354 -0.125,0.655 v 0.633 c 0,0.989 0.229,1.781 0.687,2.378 0.458,0.596 1.156,1.023 2.093,1.284 v 0.289 l -3.365,-0.477 v -9.151 h 0.289 v 0.352 c 0,0.307 0.055,0.554 0.164,0.741 0.072,0.136 0.197,0.239 0.375,0.313 0.125,0.058 0.452,0.086 0.983,0.086 h 6.966 c 0.479,0 0.772,-0.013 0.882,-0.039 0.183,-0.052 0.323,-0.148 0.422,-0.289 0.146,-0.197 0.219,-0.469 0.219,-0.812 v -0.352 h 0.289 v 8.862 h -3.132 v -0.297 c 0.766,-0.15 1.314,-0.362 1.647,-0.636 0.333,-0.274 0.578,-0.66 0.734,-1.16 0.094,-0.291 0.141,-0.838 0.141,-1.64 z"
   id="path22"
   inkscape:connector-curvature="0"
   style="fill:#ffffff" />
	</g>
	<g
   id="g46">
		<path
   d="m 267.094,473.291 v 0.279 h -5.351 v -0.279 h 0.34 c 0.297,0 0.535,-0.053 0.717,-0.158 0.131,-0.07 0.231,-0.191 0.302,-0.362 0.055,-0.121 0.083,-0.438 0.083,-0.951 v -6.731 c 0,-0.523 -0.028,-0.851 -0.083,-0.981 -0.056,-0.13 -0.168,-0.245 -0.336,-0.343 -0.169,-0.099 -0.396,-0.147 -0.683,-0.147 h -0.34 v -0.279 h 5.351 v 0.279 h -0.34 c -0.297,0 -0.536,0.053 -0.717,0.158 -0.131,0.071 -0.234,0.191 -0.31,0.362 -0.056,0.121 -0.083,0.438 -0.083,0.951 v 6.731 c 0,0.523 0.029,0.851 0.087,0.981 0.058,0.13 0.171,0.245 0.34,0.343 0.168,0.099 0.396,0.147 0.683,0.147 z"
   id="path26"
   inkscape:connector-curvature="0"
   style="fill:#ffffff" />
		<path
   d="m 271.297,463.337 5.049,6.347 v -4.399 c 0,-0.614 -0.088,-1.029 -0.264,-1.245 -0.242,-0.292 -0.647,-0.433 -1.216,-0.423 v -0.279 h 3.381 v 0.279 c -0.433,0.056 -0.723,0.127 -0.871,0.215 -0.148,0.089 -0.265,0.231 -0.348,0.431 -0.083,0.198 -0.124,0.539 -0.124,1.022 v 8.521 h -0.257 l -6.92,-8.521 v 6.505 c 0,0.589 0.135,0.986 0.403,1.192 0.27,0.207 0.577,0.31 0.925,0.31 h 0.241 v 0.279 h -3.63 v -0.279 c 0.563,-0.005 0.956,-0.121 1.178,-0.347 0.221,-0.227 0.332,-0.611 0.332,-1.155 v -7.222 l -0.219,-0.271 c -0.217,-0.272 -0.408,-0.45 -0.574,-0.536 -0.166,-0.086 -0.405,-0.134 -0.717,-0.144 v -0.279 h 3.631 z"
   id="path28"
   inkscape:connector-curvature="0"
   style="fill:#ffffff" />
		<path
   d="m 289.272,463.104 v 3.606 h -0.279 c -0.337,-0.985 -0.843,-1.735 -1.517,-2.248 -0.674,-0.514 -1.411,-0.771 -2.211,-0.771 -0.765,0 -1.401,0.216 -1.909,0.646 -0.509,0.431 -0.868,1.03 -1.079,1.8 -0.212,0.77 -0.317,1.56 -0.317,2.37 0,0.98 0.116,1.841 0.348,2.581 0.23,0.739 0.604,1.282 1.12,1.63 0.516,0.347 1.128,0.521 1.838,0.521 0.246,0 0.499,-0.026 0.759,-0.079 0.259,-0.053 0.524,-0.13 0.796,-0.23 v -2.128 c 0,-0.402 -0.028,-0.663 -0.083,-0.781 -0.056,-0.118 -0.17,-0.225 -0.344,-0.32 -0.174,-0.095 -0.384,-0.144 -0.63,-0.144 h -0.265 v -0.279 h 4.974 v 0.279 c -0.377,0.025 -0.641,0.076 -0.789,0.154 -0.148,0.078 -0.263,0.208 -0.343,0.389 -0.046,0.096 -0.068,0.33 -0.068,0.702 v 2.128 c -0.653,0.292 -1.334,0.512 -2.041,0.66 -0.707,0.148 -1.44,0.223 -2.2,0.223 -0.971,0 -1.777,-0.132 -2.418,-0.396 -0.642,-0.265 -1.208,-0.611 -1.698,-1.042 -0.49,-0.43 -0.874,-0.914 -1.151,-1.452 -0.352,-0.694 -0.528,-1.472 -0.528,-2.332 0,-1.54 0.541,-2.84 1.623,-3.902 1.081,-1.062 2.442,-1.592 4.083,-1.592 0.508,0 0.966,0.04 1.373,0.121 0.222,0.04 0.58,0.154 1.075,0.343 0.496,0.188 0.789,0.283 0.88,0.283 0.141,0 0.271,-0.052 0.392,-0.154 0.121,-0.104 0.231,-0.299 0.332,-0.585 h 0.277 z"
   id="path30"
   inkscape:connector-curvature="0"
   style="fill:#ffffff" />
		<path
   d="m 294.843,463.926 v 4.166 h 0.204 c 0.648,0 1.119,-0.204 1.411,-0.611 0.292,-0.408 0.478,-1.009 0.559,-1.804 h 0.286 v 5.357 h -0.286 c -0.061,-0.583 -0.188,-1.061 -0.382,-1.434 -0.193,-0.372 -0.418,-0.622 -0.675,-0.751 -0.257,-0.128 -0.629,-0.192 -1.117,-0.192 v 2.883 c 0,0.563 0.023,0.908 0.071,1.034 0.048,0.126 0.138,0.229 0.269,0.31 0.131,0.08 0.342,0.12 0.634,0.12 h 0.611 c 0.956,0 1.722,-0.221 2.298,-0.664 0.576,-0.442 0.99,-1.116 1.241,-2.022 h 0.279 l -0.46,3.253 h -8.845 v -0.279 h 0.34 c 0.297,0 0.535,-0.053 0.717,-0.158 0.131,-0.07 0.231,-0.191 0.302,-0.362 0.055,-0.121 0.083,-0.438 0.083,-0.951 v -6.731 c 0,-0.463 -0.013,-0.747 -0.038,-0.853 -0.05,-0.176 -0.144,-0.313 -0.279,-0.408 -0.191,-0.141 -0.452,-0.211 -0.784,-0.211 h -0.34 v -0.279 h 8.565 v 3.026 h -0.287 c -0.146,-0.739 -0.351,-1.271 -0.615,-1.593 -0.264,-0.321 -0.638,-0.558 -1.12,-0.709 -0.282,-0.091 -0.811,-0.136 -1.585,-0.136 h -1.057 z"
   id="path32"
   inkscape:connector-curvature="0"
   style="fill:#ffffff" />
		<path
   d="m 304.789,463.337 5.049,6.347 v -4.399 c 0,-0.614 -0.088,-1.029 -0.264,-1.245 -0.242,-0.292 -0.647,-0.433 -1.216,-0.423 v -0.279 h 3.381 v 0.279 c -0.433,0.056 -0.723,0.127 -0.871,0.215 -0.148,0.089 -0.265,0.231 -0.348,0.431 -0.083,0.198 -0.124,0.539 -0.124,1.022 v 8.521 h -0.257 l -6.92,-8.521 v 6.505 c 0,0.589 0.135,0.986 0.403,1.192 0.27,0.207 0.577,0.31 0.925,0.31 h 0.241 v 0.279 h -3.63 v -0.279 c 0.563,-0.005 0.956,-0.121 1.178,-0.347 0.221,-0.227 0.332,-0.611 0.332,-1.155 v -7.222 l -0.219,-0.271 c -0.217,-0.272 -0.408,-0.45 -0.574,-0.536 -0.166,-0.086 -0.405,-0.134 -0.717,-0.144 v -0.279 h 3.631 z"
   id="path34"
   inkscape:connector-curvature="0"
   style="fill:#ffffff" />
		<path
   d="m 317.762,473.291 v 0.279 h -5.351 v -0.279 h 0.34 c 0.297,0 0.535,-0.053 0.717,-0.158 0.131,-0.07 0.231,-0.191 0.302,-0.362 0.055,-0.121 0.083,-0.438 0.083,-0.951 v -6.731 c 0,-0.523 -0.028,-0.851 -0.083,-0.981 -0.056,-0.13 -0.168,-0.245 -0.336,-0.343 -0.169,-0.099 -0.396,-0.147 -0.683,-0.147 h -0.34 v -0.279 h 5.351 v 0.279 h -0.34 c -0.297,0 -0.536,0.053 -0.717,0.158 -0.131,0.071 -0.234,0.191 -0.31,0.362 -0.056,0.121 -0.083,0.438 -0.083,0.951 v 6.731 c 0,0.523 0.029,0.851 0.087,0.981 0.058,0.13 0.171,0.245 0.34,0.343 0.168,0.099 0.396,0.147 0.683,0.147 z"
   id="path36"
   inkscape:connector-curvature="0"
   style="fill:#ffffff" />
		<path
   d="m 322.327,463.926 v 4.166 h 0.204 c 0.648,0 1.119,-0.204 1.411,-0.611 0.292,-0.408 0.478,-1.009 0.559,-1.804 h 0.286 v 5.357 h -0.286 c -0.061,-0.583 -0.188,-1.061 -0.382,-1.434 -0.193,-0.372 -0.418,-0.622 -0.675,-0.751 -0.257,-0.128 -0.629,-0.192 -1.117,-0.192 v 2.883 c 0,0.563 0.023,0.908 0.071,1.034 0.048,0.126 0.138,0.229 0.269,0.31 0.131,0.08 0.342,0.12 0.634,0.12 h 0.611 c 0.956,0 1.722,-0.221 2.298,-0.664 0.576,-0.442 0.99,-1.116 1.241,-2.022 h 0.279 l -0.46,3.253 h -8.845 v -0.279 h 0.34 c 0.297,0 0.535,-0.053 0.717,-0.158 0.131,-0.07 0.231,-0.191 0.302,-0.362 0.055,-0.121 0.083,-0.438 0.083,-0.951 v -6.731 c 0,-0.463 -0.013,-0.747 -0.038,-0.853 -0.05,-0.176 -0.144,-0.313 -0.279,-0.408 -0.191,-0.141 -0.452,-0.211 -0.784,-0.211 h -0.34 v -0.279 h 8.565 v 3.026 h -0.287 c -0.146,-0.739 -0.351,-1.271 -0.615,-1.593 -0.264,-0.321 -0.638,-0.558 -1.12,-0.709 -0.282,-0.091 -0.811,-0.136 -1.585,-0.136 h -1.057 z"
   id="path38"
   inkscape:connector-curvature="0"
   style="fill:#ffffff" />
		<path
   d="m 332.53,468.906 v 2.868 c 0,0.554 0.034,0.901 0.102,1.045 0.068,0.144 0.188,0.258 0.358,0.344 0.171,0.085 0.491,0.128 0.959,0.128 v 0.279 h -5.237 v -0.279 c 0.473,0 0.793,-0.044 0.962,-0.132 0.168,-0.088 0.287,-0.202 0.354,-0.344 0.068,-0.141 0.102,-0.487 0.102,-1.041 v -6.642 c 0,-0.553 -0.033,-0.901 -0.102,-1.045 -0.067,-0.144 -0.188,-0.258 -0.358,-0.344 -0.171,-0.085 -0.49,-0.128 -0.958,-0.128 v -0.279 h 4.754 c 1.237,0 2.144,0.086 2.717,0.257 0.573,0.171 1.042,0.486 1.403,0.947 0.362,0.46 0.544,1 0.544,1.618 0,0.755 -0.271,1.379 -0.815,1.872 -0.347,0.312 -0.832,0.546 -1.456,0.702 l 2.46,3.464 c 0.322,0.447 0.551,0.727 0.687,0.837 0.206,0.156 0.445,0.242 0.717,0.257 v 0.279 H 336.5 l -3.298,-4.664 h -0.672 z m 0,-5.018 v 4.483 h 0.43 c 0.699,0 1.223,-0.064 1.57,-0.192 0.347,-0.129 0.62,-0.36 0.818,-0.694 0.199,-0.335 0.298,-0.771 0.298,-1.31 0,-0.78 -0.182,-1.356 -0.547,-1.729 -0.364,-0.372 -0.952,-0.559 -1.762,-0.559 h -0.807 z"
   id="path40"
   inkscape:connector-curvature="0"
   style="fill:#ffffff" />
		<path
   d="m 345.246,473.291 v 0.279 h -5.351 v -0.279 h 0.34 c 0.297,0 0.535,-0.053 0.717,-0.158 0.131,-0.07 0.231,-0.191 0.302,-0.362 0.055,-0.121 0.083,-0.438 0.083,-0.951 v -6.731 c 0,-0.523 -0.028,-0.851 -0.083,-0.981 -0.056,-0.13 -0.168,-0.245 -0.336,-0.343 -0.169,-0.099 -0.396,-0.147 -0.683,-0.147 h -0.34 v -0.279 h 5.351 v 0.279 h -0.34 c -0.297,0 -0.536,0.053 -0.717,0.158 -0.131,0.071 -0.234,0.191 -0.31,0.362 -0.056,0.121 -0.083,0.438 -0.083,0.951 v 6.731 c 0,0.523 0.029,0.851 0.087,0.981 0.058,0.13 0.171,0.245 0.34,0.343 0.168,0.099 0.396,0.147 0.683,0.147 z"
   id="path42"
   inkscape:connector-curvature="0"
   style="fill:#ffffff" />
		<path
   d="m 352.03,470.657 h -3.615 l -0.43,0.996 c -0.141,0.332 -0.211,0.606 -0.211,0.822 0,0.287 0.115,0.499 0.347,0.635 0.136,0.08 0.471,0.141 1.004,0.181 v 0.279 h -3.403 v -0.279 c 0.367,-0.056 0.669,-0.207 0.905,-0.456 0.236,-0.249 0.528,-0.764 0.875,-1.544 l 3.66,-8.165 h 0.144 l 3.69,8.392 c 0.353,0.795 0.642,1.296 0.868,1.502 0.171,0.156 0.412,0.246 0.725,0.271 v 0.279 h -4.951 v -0.279 h 0.204 c 0.397,0 0.677,-0.056 0.838,-0.166 0.11,-0.08 0.166,-0.196 0.166,-0.347 0,-0.091 -0.016,-0.184 -0.046,-0.279 -0.01,-0.046 -0.085,-0.234 -0.227,-0.566 z m -0.257,-0.558 -1.524,-3.524 -1.569,3.524 z"
   id="path44"
   inkscape:connector-curvature="0"
   style="fill:#ffffff" />
	</g>
	<path
   d="m 310.71,390.397 c 0.025,10.504 8.544,19.027 19.065,19.027 5.241,0 9.985,-2.122 13.434,-5.544 l -13.492,-13.483 z"
   id="path48"
   inkscape:connector-curvature="0"
   style="fill:none" />
	<path
   d="m 310.71,390.397 c 0.025,10.504 8.544,19.027 19.065,19.027 5.241,0 9.985,-2.122 13.434,-5.544 l -13.492,-13.483 z"
   id="path50"
   inkscape:connector-curvature="0"
   style="fill:none" />
	<path
   d="m 310.71,390.397 c 0.025,10.504 8.544,19.027 19.065,19.027 5.241,0 9.985,-2.122 13.434,-5.544 l -13.492,-13.483 z"
   id="path52"
   inkscape:connector-curvature="0"
   style="fill:none" />
	<polygon
   points="303.259,371.198 303.259,409.476 284.119,390.337 262.314,390.337 262.314,371.198 "
   id="polygon54"
   style="clip-rule:evenodd;fill:#ffffff;fill-rule:evenodd" />
	<polygon
   points="303.284,418.896 303.284,457.173 284.086,438.041 262.219,438.041 262.219,418.896 "
   id="polygon56"
   style="clip-rule:evenodd;fill:#ffffff;fill-rule:evenodd" />
	<polygon
   points="351.057,418.436 312.79,418.436 331.92,437.573 331.92,456.729 351.057,456.729 "
   id="polygon58"
   style="clip-rule:evenodd;fill:#ffffff;fill-rule:evenodd" />
	<path
   d="m 348.841,390.376 c 0,-0.007 0.005,-0.015 0.005,-0.021 0,-10.535 -8.537,-19.078 -19.07,-19.078 -0.008,0 -0.023,0.002 -0.023,0.002 10.539,0.016 19.081,8.556 19.088,19.097 z"
   id="path60"
   inkscape:connector-curvature="0"
   style="fill:#ffffff" />
	<path
   d="m 329.745,371.278 c -0.009,0 -0.021,-0.002 -0.021,-0.002 -10.561,0 -19.121,8.561 -19.121,19.121 h 0.106 19.007 l 13.492,13.483 0.035,0.036 c 3.465,-3.466 5.602,-8.244 5.602,-13.52 0,-0.007 -0.005,-0.016 -0.005,-0.021 -0.006,-10.54 -8.548,-19.08 -19.095,-19.097 z"
   id="path62"
   inkscape:connector-curvature="0"
   style="fill:#ffffff" />
	
		<line
   stroke-miterlimit="2.4142"
   x1="303.259"
   y1="409.194"
   x2="262.63101"
   y2="409.194"
   id="line64"
   style="fill:none;stroke:#ffffff;stroke-width:0.71439999;stroke-miterlimit:2.41420007" />
	
		<line
   stroke-miterlimit="2.4142"
   x1="313.07901"
   y1="418.431"
   x2="313.09399"
   y2="456.716"
   id="line66"
   style="fill:none;stroke:#ffffff;stroke-width:0.71439999;stroke-miterlimit:2.41420007" />
	<circle
   stroke-miterlimit="2.4142"
   cx="329.71701"
   cy="390.397"
   r="19.129"
   id="circle68"
   style="fill:none;stroke:#ffffff;stroke-width:0.71439999;stroke-miterlimit:2.41420007" />
	<polyline
   stroke-miterlimit="2.4142"
   points="331.95,456.642 355.193,456.651    355.193,364.169 262.631,364.169 262.631,390.3  "
   id="polyline70"
   style="fill:none;stroke:#ffffff;stroke-width:0.9921;stroke-miterlimit:2.41420007" />
	
		<line
   stroke-miterlimit="2.4142"
   x1="303.20999"
   y1="456.651"
   x2="313.444"
   y2="456.651"
   id="line72"
   style="fill:none;stroke:#ffffff;stroke-width:0.9709;stroke-miterlimit:2.41420007" />
	
		<line
   stroke-miterlimit="2.4142"
   x1="262.70999"
   y1="418.896"
   x2="262.70999"
   y2="408.83899"
   id="line74"
   style="fill:none;stroke:#ffffff;stroke-width:1.01090002;stroke-miterlimit:2.41420007" />
</g>
</svg>